<?xml version='1.0' encoding='UTF-8'?>
<mxfile host="app.diagrams.net"><diagram name="Authorization Workflow"><mxGraphModel dx="1228" dy="838" grid="1" gridSize="10" guides="1" tooltips="1" connect="1" arrows="1" fold="1" page="1" pageScale="1" pageWidth="827" pageHeight="1169" math="0" shadow="0"><root><mxCell id="0" /><mxCell id="1" parent="0" /><mxCell id="2" value="Management.API" style="rounded=1;whiteSpace=wrap;html=1;fillColor=#D5E8D4;strokeColor=#82B366" vertex="1" parent="1"><mxGeometry x="100" y="40" width="180" height="50" as_="geometry" /></mxCell><mxCell id="3" value="Controllers" style="rounded=1;whiteSpace=wrap;html=1;fillColor=#D5E8D4;strokeColor=#82B366" vertex="1" parent="1"><mxGeometry x="100" y="120" width="180" height="50" as_="geometry" /></mxCell><mxCell id="4" value="AliasController.cs" style="rounded=1;whiteSpace=wrap;html=1;fillColor=#D5E8D4;strokeColor=#82B366" vertex="1" parent="1"><mxGeometry x="100" y="200" width="180" height="50" as_="geometry" /></mxCell><mxCell id="5" value="Handlers" style="rounded=1;whiteSpace=wrap;html=1;fillColor=#D5E8D4;strokeColor=#82B366" vertex="1" parent="1"><mxGeometry x="100" y="280" width="180" height="50" as_="geometry" /></mxCell><mxCell id="6" value="AliasHandler.cs" style="rounded=1;whiteSpace=wrap;html=1;fillColor=#D5E8D4;strokeColor=#82B366" vertex="1" parent="1"><mxGeometry x="100" y="360" width="180" height="50" as_="geometry" /></mxCell><mxCell id="7" value="Management.Domain" style="rounded=1;whiteSpace=wrap;html=1;fillColor=#D5E8D4;strokeColor=#82B366" vertex="1" parent="1"><mxGeometry x="100" y="440" width="180" height="50" as_="geometry" /></mxCell><mxCell id="8" value="FxCashStreaming" style="rounded=1;whiteSpace=wrap;html=1;fillColor=#D5E8D4;strokeColor=#82B366" vertex="1" parent="1"><mxGeometry x="100" y="520" width="180" height="50" as_="geometry" /></mxCell><mxCell id="9" value="Inputs" style="rounded=1;whiteSpace=wrap;html=1;fillColor=#D5E8D4;strokeColor=#82B366" vertex="1" parent="1"><mxGeometry x="100" y="600" width="180" height="50" as_="geometry" /></mxCell><mxCell id="10" value="Adaptors" style="rounded=1;whiteSpace=wrap;html=1;fillColor=#D5E8D4;strokeColor=#82B366" vertex="1" parent="1"><mxGeometry x="100" y="680" width="180" height="50" as_="geometry" /></mxCell><mxCell id="11" value="AliasAdaptor.cs" style="rounded=1;whiteSpace=wrap;html=1;fillColor=#D5E8D4;strokeColor=#82B366" vertex="1" parent="1"><mxGeometry x="100" y="760" width="180" height="50" as_="geometry" /></mxCell><mxCell id="12" value="Common" style="rounded=1;whiteSpace=wrap;html=1;fillColor=#D5E8D4;strokeColor=#82B366" vertex="1" parent="1"><mxGeometry x="100" y="840" width="180" height="50" as_="geometry" /></mxCell><mxCell id="13" value="Services" style="rounded=1;whiteSpace=wrap;html=1;fillColor=#D5E8D4;strokeColor=#82B366" vertex="1" parent="1"><mxGeometry x="100" y="920" width="180" height="50" as_="geometry" /></mxCell><mxCell id="14" value="Authorization" style="rounded=1;whiteSpace=wrap;html=1;fillColor=#D5E8D4;strokeColor=#82B366" vertex="1" parent="1"><mxGeometry x="100" y="1000" width="180" height="50" as_="geometry" /></mxCell><mxCell id="15" value="AuthorizationService.cs" style="rounded=1;whiteSpace=wrap;html=1;fillColor=#D5E8D4;strokeColor=#82B366" vertex="1" parent="1"><mxGeometry x="100" y="1080" width="180" height="50" as_="geometry" /></mxCell><mxCell id="16" value="AuthorizationManager.cs" style="rounded=1;whiteSpace=wrap;html=1;fillColor=#D5E8D4;strokeColor=#82B366" vertex="1" parent="1"><mxGeometry x="100" y="1160" width="180" height="50" as_="geometry" /></mxCell><mxCell id="17" value="Check Permissions (SG-IAM or LoggedInUserPort.Permissions)" style="rounded=1;whiteSpace=wrap;html=1;fillColor=#D5E8D4;strokeColor=#82B366" vertex="1" parent="1"><mxGeometry x="100" y="1240" width="180" height="50" as_="geometry" /></mxCell><mxCell id="18" style="edgeStyle=elbowEdgeStyle;rounded=1;html=1;strokeColor=#000000" edge="1" parent="1" source="2" target="3"><mxGeometry relative="1" as_="geometry" /></mxCell><mxCell id="19" style="edgeStyle=elbowEdgeStyle;rounded=1;html=1;strokeColor=#000000" edge="1" parent="1" source="3" target="4"><mxGeometry relative="1" as_="geometry" /></mxCell><mxCell id="20" style="edgeStyle=elbowEdgeStyle;rounded=1;html=1;strokeColor=#000000" edge="1" parent="1" source="4" target="5"><mxGeometry relative="1" as_="geometry" /></mxCell><mxCell id="21" style="edgeStyle=elbowEdgeStyle;rounded=1;html=1;strokeColor=#000000" edge="1" parent="1" source="5" target="6"><mxGeometry relative="1" as_="geometry" /></mxCell><mxCell id="22" style="edgeStyle=elbowEdgeStyle;rounded=1;html=1;strokeColor=#000000" edge="1" parent="1" source="6" target="7"><mxGeometry relative="1" as_="geometry" /></mxCell><mxCell id="23" style="edgeStyle=elbowEdgeStyle;rounded=1;html=1;strokeColor=#000000" edge="1" parent="1" source="7" target="8"><mxGeometry relative="1" as_="geometry" /></mxCell><mxCell id="24" style="edgeStyle=elbowEdgeStyle;rounded=1;html=1;strokeColor=#000000" edge="1" parent="1" source="8" target="9"><mxGeometry relative="1" as_="geometry" /></mxCell><mxCell id="25" style="edgeStyle=elbowEdgeStyle;rounded=1;html=1;strokeColor=#000000" edge="1" parent="1" source="9" target="10"><mxGeometry relative="1" as_="geometry" /></mxCell><mxCell id="26" style="edgeStyle=elbowEdgeStyle;rounded=1;html=1;strokeColor=#000000" edge="1" parent="1" source="10" target="11"><mxGeometry relative="1" as_="geometry" /></mxCell><mxCell id="27" style="edgeStyle=elbowEdgeStyle;rounded=1;html=1;strokeColor=#000000" edge="1" parent="1" source="11" target="12"><mxGeometry relative="1" as_="geometry" /></mxCell><mxCell id="28" style="edgeStyle=elbowEdgeStyle;rounded=1;html=1;strokeColor=#000000" edge="1" parent="1" source="12" target="13"><mxGeometry relative="1" as_="geometry" /></mxCell><mxCell id="29" style="edgeStyle=elbowEdgeStyle;rounded=1;html=1;strokeColor=#000000" edge="1" parent="1" source="13" target="14"><mxGeometry relative="1" as_="geometry" /></mxCell><mxCell id="30" style="edgeStyle=elbowEdgeStyle;rounded=1;html=1;strokeColor=#000000" edge="1" parent="1" source="14" target="15"><mxGeometry relative="1" as_="geometry" /></mxCell><mxCell id="31" style="edgeStyle=elbowEdgeStyle;rounded=1;html=1;strokeColor=#000000" edge="1" parent="1" source="15" target="16"><mxGeometry relative="1" as_="geometry" /></mxCell><mxCell id="32" style="edgeStyle=elbowEdgeStyle;rounded=1;html=1;strokeColor=#000000" edge="1" parent="1" source="16" target="17"><mxGeometry relative="1" as_="geometry" /></mxCell></root></mxGraphModel></diagram></mxfile>